<?xml version="1.0" encoding="UTF-8"?>
<svg viewBox="0 0 13 11" version="1.1" xmlns="http://www.w3.org/2000/svg" xmlns:xlink="http://www.w3.org/1999/xlink">
    <defs>
        <path d="M5.1277704,-2.07168062e-16 L332.87223,2.07168062e-16 C334.655267,-1.2037061e-16 335.30184,0.185651222 335.953691,0.534265408 C336.605543,0.882879593 337.11712,1.39445674 337.465735,2.04630859 C337.814349,2.69816044 338,3.34473292 338,5.1277704 L338,414.87223 C338,416.655267 337.814349,417.30184 337.465735,417.953691 C337.11712,418.605543 336.605543,419.11712 335.953691,419.465735 C335.30184,419.814349 334.655267,420 332.87223,420 L5.1277704,420 C3.34473292,420 2.69816044,419.814349 2.04630859,419.465735 C1.39445674,419.11712 0.882879593,418.605543 0.534265408,417.953691 C0.185651222,417.30184 8.02470732e-17,416.655267 -1.38112041e-16,414.87223 L1.38112041e-16,5.1277704 C-8.02470732e-17,3.34473292 0.185651222,2.69816044 0.534265408,2.04630859 C0.882879593,1.39445674 1.39445674,0.882879593 2.04630859,0.534265408 C2.69816044,0.185651222 3.34473292,1.2037061e-16 5.1277704,-2.07168062e-16 Z"></path>
        <filter x="-1.8%" y="-1.2%" width="103.6%" height="102.9%" filterUnits="objectBoundingBox">
            <feMorphology radius="0.5" operator="dilate" in="SourceAlpha" result="shadowSpreadOuter1"></feMorphology>
            <feOffset dx="0" dy="0" in="shadowSpreadOuter1" result="shadowOffsetOuter1"></feOffset>
            <feComposite in="shadowOffsetOuter1" in2="SourceAlpha" operator="out" result="shadowOffsetOuter1"></feComposite>
            <feColorMatrix values="0 0 0 0 0.219607843   0 0 0 0 0.235294118   0 0 0 0 0.262745098  0 0 0 0.05 0" type="matrix" in="shadowOffsetOuter1" result="shadowMatrixOuter1"></feColorMatrix>
            <feOffset dx="0" dy="1" in="SourceAlpha" result="shadowOffsetOuter2"></feOffset>
            <feGaussianBlur stdDeviation="1.5" in="shadowOffsetOuter2" result="shadowBlurOuter2"></feGaussianBlur>
            <feComposite in="shadowBlurOuter2" in2="SourceAlpha" operator="out" result="shadowBlurOuter2"></feComposite>
            <feColorMatrix values="0 0 0 0 0.219607843   0 0 0 0 0.235294118   0 0 0 0 0.262745098  0 0 0 0.15 0" type="matrix" in="shadowBlurOuter2" result="shadowMatrixOuter2"></feColorMatrix>
            <feMerge>
                <feMergeNode in="shadowMatrixOuter1"></feMergeNode>
                <feMergeNode in="shadowMatrixOuter2"></feMergeNode>
            </feMerge>
        </filter>
    </defs>
    <g stroke="none" stroke-width="1" fill="none" fill-rule="evenodd">
        <g transform="translate(-161.000000, -305.000000)">
            <g transform="translate(133.000000, 126.000000)">
                <g transform="translate(0.000000, 134.000000)">
                    <g transform="translate(0.000000, 16.000000)">
                        <g>
                            <use fill="black" fill-opacity="1" filter="url(#filter-2)" xlink:href="#path-1"></use>
                            <path stroke="#2467FF" stroke-width="2" d="M5.1277704,1 C3.65310186,1 3.09403919,1.10795998 2.51790745,1.41607861 C2.04032407,1.67149299 1.67149299,2.04032407 1.41607861,2.51790745 C1.10795998,3.09403919 1,3.65310186 1,5.1277704 L1,414.87223 C1,416.346898 1.10795998,416.905961 1.41607861,417.482093 C1.67149299,417.959676 2.04032407,418.328507 2.51790745,418.583921 C3.09403919,418.89204 3.65310186,419 5.1277704,419 L332.87223,419 C334.346898,419 334.905961,418.89204 335.482093,418.583921 C335.959676,418.328507 336.328507,417.959676 336.583921,417.482093 C336.89204,416.905961 337,416.346898 337,414.87223 L337,5.1277704 C337,3.65310186 336.89204,3.09403919 336.583921,2.51790745 C336.328507,2.04032407 335.959676,1.67149299 335.482093,1.41607861 C334.905961,1.10795998 334.346898,1 332.87223,1 L5.1277704,1 Z" stroke-linejoin="square" fill="#FFFFFF" fill-rule="evenodd"></path>
                        </g>
                        <g transform="translate(20.000000, 20.000000)">
                            <circle fill="#2467FF" cx="14.5" cy="14.5" r="14.5"></circle>
                            <polygon fill="#FFFFFF" fill-rule="nonzero" points="21 10.974799 19.1423 9 12.511 16.0517221 9.859 13.2307692 8 15.2055682 12.511 20"></polygon>
                        </g>
                    </g>
                </g>
            </g>
        </g>
    </g>
</svg>